<svg width="208" height="46" viewBox="0 0 208 46" fill="none" xmlns="http://www.w3.org/2000/svg">
<path d="M30.6082 32.0766V20.9078C29.5514 22.06 28.2022 22.9382 26.6868 23.4592C25.1714 23.9802 23.5397 24.1267 21.9477 23.8851C19.9756 24.0614 18.0057 23.5295 16.429 22.395C15.607 21.6201 14.97 20.6879 14.56 19.6608C14.15 18.6337 13.9768 17.5357 14.0522 16.4401C13.9729 15.4557 14.1466 14.4679 14.5587 13.5608C14.9707 12.6538 15.6089 11.8546 16.4184 11.2315C18.0059 10.1175 19.9673 9.58792 21.9371 9.74148C25.2894 9.74148 28.1502 9.33776 30.6002 12.7191V1.54994C27.8682 0.441847 24.9066 -0.0672345 21.9371 0.0602063C17.3972 -0.162005 12.9232 1.15851 9.32225 3.78377C7.27301 5.25843 5.6301 7.17864 4.53166 9.38175C3.43322 11.5849 2.91178 14.0061 3.01218 16.4401C2.91391 18.9815 3.43133 21.5106 4.52507 23.8336C5.6188 26.1566 7.25968 28.2121 9.32225 29.8428C12.4161 31.8134 15.9681 33.0457 19.675 33.4347C23.3819 33.8237 27.1331 33.3579 30.6082 32.0766ZM74.7667 16.4401C75.2773 5.50133 65.0236 -0.292494 54.2643 0.0602063C43.4375 -0.686087 32.7395 5.54734 32.9718 16.4401C32.4153 27.5553 43.4699 33.96 54.2643 33.5639C65.1532 34.3102 74.9072 27.1157 74.7694 16.4401H74.7667ZM63.7268 16.4401C63.7282 18.6162 62.8154 20.7038 61.1903 22.2437C59.5653 23.7837 57.361 24.6499 55.061 24.652C54.7909 24.652 54.5199 24.6518 54.2498 24.6186C49.4577 24.6186 43.9986 21.5236 43.9986 16.4401C43.9986 10.8174 49.4577 8.9952 54.2498 8.9952C59.2472 8.9952 63.7268 11.694 63.7268 16.4401ZM104.724 11.9725C104.767 10.303 104.439 8.64363 103.76 7.10238C103.08 5.56112 102.064 4.17256 100.78 3.0272C98.5233 1.40543 95.7223 0.612149 92.895 0.793688H77.133V32.8101H88.173V22.3851C92.1849 22.7733 96.2369 22.2628 100.002 20.895C103.119 19.2823 104.724 16.6292 104.724 11.9725ZM93.6838 11.9725C93.6838 13.9047 92.8085 14.2063 90.5314 14.2063H88.1651V8.9952H91.3175C92.5844 8.9952 93.6917 10.6972 93.6917 11.9725H93.6838ZM148.091 32.8204L133.12 0.803671H121.28L107.087 32.8204H120.491L122.068 28.3527H133.11L134.687 32.8204H148.091ZM127.587 21.6516H124.449C126.076 17.8373 127.137 13.8284 127.602 9.73898C127.999 13.8396 129.062 17.8577 130.754 21.6516H127.587ZM175.707 11.9725C175.75 10.303 175.421 8.64368 174.741 7.10238C174.062 5.56107 173.046 4.17236 171.762 3.0272C169.506 1.40623 166.706 0.61301 163.879 0.793688H148.107V32.8101H159.147V22.3851C163.158 22.7732 167.209 22.2627 170.973 20.895C174.09 19.2823 175.703 16.6292 175.703 11.9725H175.707ZM164.665 11.9725C164.665 13.9047 163.004 14.2063 160.722 14.2063H158.355V8.9952H162.299C163.555 8.98242 164.663 10.6972 164.663 11.9725H164.665ZM205.669 11.9725C205.712 10.303 205.383 8.64363 204.703 7.10238C204.024 5.56112 203.01 4.17256 201.725 3.0272C199.175 1.40348 196.131 0.618809 193.062 0.793688H178.078V32.8101H188.329V22.3851C192.599 22.7553 196.902 22.2469 200.944 20.895C204.062 19.2823 205.672 16.6292 205.672 11.9725H205.669ZM194.629 11.9725C194.629 13.9047 192.968 14.2063 190.685 14.2063H188.322V8.9952H192.265C193.524 8.9952 194.632 10.6972 194.632 11.9725H194.629Z" fill="#F9F9F9"/>
<path d="M178.129 26.8359L188.354 26.864V29.8391L178.129 29.8135V26.8359Z" fill="#FFD400"/>
<path d="M208 40.332H0V45.9982H208V40.332Z" fill="#FFD400"/>
</svg>
