<svg xmlns="http://www.w3.org/2000/svg" width="27.048" height="25.722" viewBox="0 0 27.048 25.722">
  <g id="buy" transform="translate(-243.264 -362.142)">
    <g id="Group_642" data-name="Group 642" transform="translate(243.264 362.142)">
      <g id="Group_641" data-name="Group 641">
        <g id="Path_993" data-name="Path 993" transform="translate(19.014 21.031)">
          <path id="Path_1002" data-name="Path 1002" d="M322.28,451.629a1.688,1.688,0,0,1-.234-.011,2.346,2.346,0,0,1,.459-4.669h0a2.344,2.344,0,0,1-.006,4.667c-.073.007-.146.011-.219.011Zm-.009-3.7a1.393,1.393,0,1,0,.14.01h0A1.265,1.265,0,0,0,322.271,447.928Z" transform="translate(-319.929 -446.938)" fill="#7b7b7b"/>
        </g>
        <g id="Path_996" data-name="Path 996" transform="translate(9.117 21.031)">
          <path id="Path_1003" data-name="Path 1003" d="M282.376,451.629a1.7,1.7,0,0,1-.236-.011,2.346,2.346,0,1,1,.46-4.669h0a2.346,2.346,0,0,1-.225,4.68Zm-.008-3.7a1.355,1.355,0,0,0-.13,2.7,1.321,1.321,0,0,0,.99-.3,1.351,1.351,0,0,0,.49-.915,1.5,1.5,0,0,0,0-.267,1.357,1.357,0,0,0-1.211-1.214h0a1.234,1.234,0,0,0-.138-.01Z" transform="translate(-280.025 -446.938)" fill="#7b7b7b"/>
        </g>
        <g id="Path_994" data-name="Path 994">
          <path id="Path_1004" data-name="Path 1004" d="M250.566,382.337a1.376,1.376,0,0,1-1.356-1.141l-2.759-12.659h-2a1.188,1.188,0,0,1-1.188-1.187h0V366.9a1.187,1.187,0,0,1,1.188-1.187h3.126a1.41,1.41,0,0,1,1.372,1.089l.778,3.525a.172.172,0,0,0,.167.134v.006a.495.495,0,0,1,0,.99h0v-.006a1.168,1.168,0,0,1-1.133-.911l-.776-3.516a.42.42,0,0,0-.408-.316h-3.125a.2.2,0,0,0-.2.2h0v.451a.2.2,0,0,0,.2.2h2.395a.5.5,0,0,1,.484.39l2.847,13.063c.038.21.213.386.4.344h16.016a.421.421,0,0,0,.41-.325l2.265-9.061c.009-.035.022-.091.033-.15h0a.495.495,0,1,1,0-.99h.255a.734.734,0,0,1,.587.271,1.286,1.286,0,0,1,.088,1.1l-2.267,9.068a1.409,1.409,0,0,1-1.37,1.079H250.566Zm8.974-6.321a6.937,6.937,0,1,1,6.937-6.937h0a6.944,6.944,0,0,1-6.937,6.937Zm0-12.593a5.656,5.656,0,1,0,5.656,5.657,5.656,5.656,0,0,0-5.656-5.657Z" transform="translate(-243.264 -362.142)" fill="#7b7b7b"/>
        </g>
        <g id="Path_995" data-name="Path 995" transform="translate(13.44 4.855)">
          <path id="Path_1005" data-name="Path 1005" d="M299.379,383.659l-.594-.6a.779.779,0,0,0-1.1-.01h0a.777.777,0,0,0-.013,1.1l0,0s.588.574,1.126,1.089a1.217,1.217,0,0,0,1.661.023l2.421-2.2a.778.778,0,0,0,.036-1.1h0a.779.779,0,0,0-1.1-.038l0,0-1.851,1.74A.421.421,0,0,1,299.379,383.659Z" transform="translate(-297.453 -381.718)" fill="#7b7b7b"/>
        </g>
      </g>
    </g>
  </g>
</svg>
