<svg xmlns="http://www.w3.org/2000/svg" width="76.85" height="18.042" viewBox="0 0 76.85 18.042">
  <g id="Group_3464" data-name="Group 3464" transform="translate(-16 -16)">
    <g id="Group_3283" data-name="Group 3283" transform="translate(-89.854 -243.833)">
      <g id="Group_3282" data-name="Group 3282" transform="translate(106.657 259.833)">
        <path id="Path_5245" data-name="Path 5245" d="M9.418-31.144v-4.37a3.5,3.5,0,0,1-3.2,1.165,2.906,2.906,0,0,1-2.039-.583A3.016,3.016,0,0,1,3.3-37.262,2.393,2.393,0,0,1,4.175-39.3a3.009,3.009,0,0,1,2.039-.583c1.238,0,2.294-.158,3.2,1.165v-4.37a7.28,7.28,0,0,0-3.2-.583,7.03,7.03,0,0,0-4.661,1.457A5.937,5.937,0,0,0-.778-37.262a6.527,6.527,0,0,0,2.331,5.244,7.189,7.189,0,0,0,4.661,1.457A7.172,7.172,0,0,0,9.418-31.144Zm16.314-6.118c.189-4.28-3.6-6.547-7.575-6.409-4-.292-7.952,2.147-7.866,6.409-.206,4.349,3.878,6.855,7.866,6.7C22.18-30.27,25.784-33.085,25.733-37.262Zm-4.079,0a3.208,3.208,0,0,1-3.5,3.2c-1.77,0-3.787-1.211-3.787-3.2,0-2.2,2.017-2.913,3.787-2.913C20-40.176,21.654-39.119,21.654-37.262ZM36.8-39.01a4.661,4.661,0,0,0-1.457-3.5,4.33,4.33,0,0,0-2.913-.874H26.607v12.527h4.079v-4.079a9.471,9.471,0,0,0,4.37-.583C36.207-36.15,36.8-37.188,36.8-39.01Zm-4.079,0c0,.756-.323.874-1.165.874h-.874v-2.039h1.165C32.315-40.176,32.725-39.509,32.725-39.01Zm20.1,8.157L47.291-43.38h-4.37L37.677-30.853H42.63l.583-1.748h4.079l.583,1.748Zm-7.575-4.37H44.087a17.542,17.542,0,0,0,1.165-4.661,15.7,15.7,0,0,0,1.165,4.661ZM63.023-39.01a4.661,4.661,0,0,0-1.457-3.5,4.33,4.33,0,0,0-2.913-.874H52.826v12.527h4.079v-4.079a9.471,9.471,0,0,0,4.37-.583C62.427-36.15,63.023-37.188,63.023-39.01Zm-4.079,0c0,.756-.614.874-1.457.874h-.874v-2.039H58.07C58.535-40.176,58.944-39.509,58.944-39.01Zm15.149,0a4.661,4.661,0,0,0-1.457-3.5,5.168,5.168,0,0,0-3.2-.874H63.9v12.527h3.787v-4.079a10.946,10.946,0,0,0,4.661-.583C73.5-36.15,74.094-37.188,74.094-39.01Zm-4.079,0c0,.756-.614.874-1.457.874h-.874v-2.039h1.457C69.605-40.176,70.015-39.509,70.015-39.01Z" transform="translate(0.778 43.695)" fill="#313133"/>
        <path id="Path_5246" data-name="Path 5246" d="M1.007-.036l3.785.011V1.139L1.007,1.129Z" transform="translate(63.67 10.537)" fill="#ffd400"/>
      </g>
      <rect id="Rectangle_1152" data-name="Rectangle 1152" width="76.85" height="2.217" transform="translate(105.853 275.658)" fill="#ffd400"/>
    </g>
  </g>
</svg>
