<svg width="124" height="45" viewBox="0 0 124 45" fill="none" xmlns="http://www.w3.org/2000/svg">
<path d="M34.5079 10.2371V17.4057C34.5079 18.8888 34.2277 20.2896 33.6674 21.6079C33.1071 22.8933 32.3326 24.0304 31.3438 25.0192C30.3551 26.0079 29.2015 26.7824 27.8831 27.3427C26.5978 27.903 25.2135 28.1832 23.7303 28.1832H10.7775C9.29438 28.1832 7.89363 27.903 6.57528 27.3427C5.28989 26.7824 4.15281 26.0079 3.16404 25.0192C2.17528 24.0304 1.40075 22.8933 0.840449 21.6079C0.28015 20.2896 0 18.8888 0 17.4057V10.2371H8.35506V17.4057C8.35506 18.0648 8.58577 18.6251 9.04719 19.0866C9.54157 19.515 10.1184 19.7293 10.7775 19.7293H23.7303C24.3895 19.7293 24.9498 19.515 25.4112 19.0866C25.9056 18.6251 26.1528 18.0648 26.1528 17.4057V10.2371H34.5079ZM23.1865 32.5832V38.8124H19.5281V44.0034H13.2989V38.8124H9.39326V32.5832H23.1865Z" fill="#313131"/>
<path d="M36.9628 28.1832V0.992188H45.4167V28.1832H36.9628Z" fill="#313131"/>
<path d="M93.7483 28.1798C92.7596 28.1798 91.8203 28.015 90.9304 27.6854C90.0405 27.3558 89.2165 26.9109 88.4585 26.3506C87.6015 26.9109 86.6622 27.3558 85.6405 27.6854C84.6188 28.015 83.5641 28.1798 82.4764 28.1798H69.5731C68.0899 28.1798 66.6892 27.8996 65.3708 27.3393C64.0525 26.7461 62.8989 25.9715 61.9101 25.0157C60.9543 24.027 60.1798 22.8734 59.5865 21.5551C59.0262 20.2367 58.7461 18.836 58.7461 17.3528V10.1843H67.1011V17.3528C67.1011 18.012 67.3319 18.5723 67.7933 19.0337C68.2877 19.4622 68.8809 19.6764 69.5731 19.6764H82.4764C83.1356 19.6764 83.6959 19.4622 84.1573 19.0337C84.6517 18.5723 84.8989 18.012 84.8989 17.3528V10.1843H93.2045V19.3303C93.2045 19.594 93.3858 19.7258 93.7483 19.7258H95.7259C96.2532 19.7258 96.6158 20.1213 96.8135 20.9124C97.0442 21.6704 97.1596 22.6757 97.1596 23.9281C97.1596 25.2135 97.0607 26.2517 96.8629 27.0427C96.6982 27.8008 96.3191 28.1798 95.7259 28.1798H93.7483ZM82.6247 32.5798V38.809H78.9663V44H72.7371V38.809H68.8315V32.5798H82.6247Z" fill="#313131"/>
<path d="M95.7475 28.1798C95.1213 28.1798 94.7258 27.8008 94.561 27.0427C94.3632 26.2517 94.2644 25.2135 94.2644 23.9281C94.2644 22.6757 94.3797 21.6704 94.6104 20.9124C94.8082 20.1213 95.1872 19.7258 95.7475 19.7258H115.078C115.144 19.7258 115.16 19.5775 115.127 19.2809C115.127 18.9843 115.127 18.803 115.127 18.7371C115.127 18.5064 115.061 18.3251 114.93 18.1933C114.831 18.0285 114.699 17.9131 114.534 17.8472C114.402 17.7483 114.27 17.6824 114.139 17.6494C114.007 17.5835 113.924 17.5506 113.891 17.5506C113.529 17.4846 113.018 17.3858 112.359 17.2539C111.733 17.1221 111.007 16.9903 110.183 16.8584C109.392 16.6936 108.536 16.5288 107.613 16.364C106.723 16.1663 105.833 15.985 104.943 15.8202C102.834 15.4247 100.559 14.9963 98.1205 14.5348V8.40449L108.601 0L113.249 4.44944L109.739 8.50337C110.299 8.60225 110.876 8.70112 111.469 8.8C112.062 8.89888 112.622 8.99775 113.15 9.09663C113.71 9.19551 114.188 9.29438 114.583 9.39326C115.012 9.45918 115.309 9.50861 115.473 9.54157C116.429 9.73932 117.368 10.0689 118.291 10.5303C119.214 10.9918 120.038 11.6345 120.763 12.4584C121.521 13.2494 122.131 14.2382 122.592 15.4247C123.054 16.5783 123.285 17.979 123.285 19.627C123.285 20.8135 123.054 21.9341 122.592 22.9888C122.164 24.0105 121.571 24.9169 120.813 25.7079C120.055 26.4659 119.165 27.0757 118.143 27.5371C117.121 27.9655 116.017 28.1798 114.831 28.1798H95.7475Z" fill="#313131"/>
</svg>
