<svg xmlns="http://www.w3.org/2000/svg" width="30" height="30" viewBox="0 0 30 30">
  <g id="delivery_menu" transform="translate(-210 -633)">
    <rect id="Rectangle_35" data-name="Rectangle 35" width="30" height="30" transform="translate(210 633)" fill="none"/>
    <g id="Group_11" data-name="Group 11" transform="translate(211 637)">
      <path id="Path_30" data-name="Path 30" d="M511.355,1398.772l-5.889-5.889a1.416,1.416,0,0,0-1.007-.417h-8.146v.949h2.372v7.116h.948v-7.116h4.825a.473.473,0,0,1,.336.139l.81.81h-2.176a.949.949,0,0,0-.948.949v4.27a.949.949,0,0,0,.948.949h7.116v3.795a.475.475,0,0,1-.474.474h-.986a3.316,3.316,0,0,0-6.566,0H495.8a3.316,3.316,0,0,0-6.565,0h-.986a.474.474,0,0,1-.474-.474v-4.27h-.949v4.27a1.423,1.423,0,0,0,1.423,1.423h.986a3.313,3.313,0,0,0,.963,1.9H483.03v.948H505.8a3.324,3.324,0,0,0,3.283-2.846h.986a1.423,1.423,0,0,0,1.423-1.423v-5.219a.476.476,0,0,0-.139-.336Zm-21.209,6.5a2.372,2.372,0,1,1,2.372,2.372,2.372,2.372,0,0,1-2.372-2.372Zm4.691,2.372a3.31,3.31,0,0,0,.963-1.9h6.718a3.312,3.312,0,0,0,.963,1.9Zm10.964,0a2.372,2.372,0,1,1,2.372-2.372,2.373,2.373,0,0,1-2.372,2.372Zm-2.372-8.065v-4.27h3.124l3.992,3.992v.278Zm0,0" transform="translate(-483.03 -1386.773)" fill="#878787"/>
      <rect id="Rectangle_7" data-name="Rectangle 7" width="0.949" height="0.949" transform="translate(9.013 18.027)" fill="#878787"/>
      <rect id="Rectangle_8" data-name="Rectangle 8" width="0.949" height="0.949" transform="translate(22.296 18.027)" fill="#878787"/>
      <rect id="Rectangle_9" data-name="Rectangle 9" width="2.372" height="0.949" transform="translate(0 16.604)" fill="#878787"/>
      <rect id="Rectangle_10" data-name="Rectangle 10" width="1.423" height="0.949" transform="translate(0.949 14.706)" fill="#878787"/>
      <rect id="Rectangle_11" data-name="Rectangle 11" width="0.949" height="0.949" transform="translate(1.423 12.808)" fill="#878787"/>
      <path id="Path_31" data-name="Path 31" d="M489.2,1393.414a6.167,6.167,0,1,0-6.167-6.167,6.167,6.167,0,0,0,6.167,6.167Zm0-11.385a5.218,5.218,0,1,1-5.218,5.219,5.218,5.218,0,0,1,5.218-5.219Zm0,0" transform="translate(-483.03 -1381.08)" fill="#878787"/>
      <path id="Path_32" data-name="Path 32" d="M492.044,1393.414a.474.474,0,0,0,.335-.139c.305-.306,2.985-3.044,2.985-5.08a3.321,3.321,0,1,0-6.641,0c0,2.035,2.68,4.774,2.985,5.08a.476.476,0,0,0,.336.139Zm0-7.59a2.375,2.375,0,0,1,2.372,2.372c0,1.217-1.493,3.1-2.372,4.057-.879-.958-2.372-2.839-2.372-4.057a2.374,2.374,0,0,1,2.372-2.372Zm0,0" transform="translate(-485.877 -1382.978)" fill="#878787"/>
      <path id="Path_33" data-name="Path 33" d="M495.365,1390.094a1.423,1.423,0,1,0-1.423,1.423,1.423,1.423,0,0,0,1.423-1.423Zm-1.9,0a.474.474,0,1,1,.474.474.475.475,0,0,1-.474-.474Zm0,0" transform="translate(-487.775 -1384.876)" fill="#878787"/>
      <rect id="Rectangle_12" data-name="Rectangle 12" width="1.898" height="0.949" transform="translate(18.027 14.706)" fill="#878787"/>
    </g>
  </g>
</svg>
