<svg xmlns="http://www.w3.org/2000/svg" width="11.689" height="11.677" viewBox="0 0 11.689 11.677">
  <g id="pencil" transform="translate(0)">
    <path id="Path_5369" data-name="Path 5369" d="M7.218,82.473.787,88.9a.256.256,0,0,0-.067.117L.007,91.884a.253.253,0,0,0,.246.314.251.251,0,0,0,.061-.008l2.861-.713a.253.253,0,0,0,.117-.067l6.432-6.432Zm0,0" transform="translate(0 -80.521)" fill="#eb5151"/>
    <path id="Path_5370" data-name="Path 5370" d="M337.711,1.321,337,.605a1.3,1.3,0,0,0-1.79,0l-.877.877,2.506,2.506.877-.877a1.266,1.266,0,0,0,0-1.79Zm0,0" transform="translate(-326.393 -0.246)" fill="#eb5151"/>
  </g>
</svg>
