<svg width="742" height="144" viewBox="0 0 742 144" fill="none" xmlns="http://www.w3.org/2000/svg">
<g filter="url(#filter0_dd)">
<rect x="4" y="4" width="734" height="132.923" rx="6.57488" fill="#131313"/>
<rect x="8" y="8" width="124.923" height="124.923" rx="3.28744" fill="white"/>
<path fill-rule="evenodd" clip-rule="evenodd" d="M97.4447 71.1005C97.4447 69.1074 97.2659 67.191 96.9337 65.3512H70.4614V76.2238H85.5884C84.9368 79.7372 82.9565 82.7141 79.9797 84.7071V91.7596H89.0636C94.3784 86.8663 97.4447 79.6606 97.4447 71.1005Z" fill="#4285F4"/>
<path fill-rule="evenodd" clip-rule="evenodd" d="M70.4612 98.569C78.0503 98.569 84.4128 96.0521 89.0634 91.7593L79.9795 84.7068C77.4626 86.3933 74.243 87.3898 70.4612 87.3898C63.1405 87.3898 56.944 82.4455 54.7338 75.8018H45.3433V83.0843C49.9682 92.2703 59.4737 98.569 70.4612 98.569Z" fill="#34A853"/>
<path fill-rule="evenodd" clip-rule="evenodd" d="M54.7346 75.8022C54.1725 74.1158 53.8531 72.3143 53.8531 70.4618C53.8531 68.6092 54.1725 66.8078 54.7346 65.1213V57.8389H45.3441C43.4405 61.6334 42.3545 65.9262 42.3545 70.4618C42.3545 74.9973 43.4405 79.2901 45.3441 83.0846L54.7346 75.8022Z" fill="#FBBC05"/>
<path fill-rule="evenodd" clip-rule="evenodd" d="M70.4612 53.5336C74.588 53.5336 78.293 54.9517 81.206 57.7369L89.2678 49.6752C84.4001 45.1396 78.0375 42.3544 70.4612 42.3544C59.4737 42.3544 49.9682 48.6531 45.3433 57.8391L54.7338 65.1216C56.944 58.4779 63.1405 53.5336 70.4612 53.5336Z" fill="#EA4335"/>
<path d="M310.426 73.7448C310.296 73.9489 310.166 74.1761 310.037 74.4266C309.916 74.6677 309.805 74.9321 309.703 75.2196C309.517 75.7205 309.346 76.3327 309.188 77.0561C309.039 77.7704 308.965 78.619 308.965 79.6022C308.965 80.2144 309.044 80.7663 309.202 81.2579C309.369 81.7588 309.587 82.1993 309.856 82.5796C310.134 82.9599 310.449 83.2892 310.802 83.5675C311.163 83.8457 311.534 84.073 311.915 84.2492C312.295 84.4347 312.671 84.5738 313.042 84.6666C313.422 84.7686 313.774 84.8289 314.099 84.8475C314.22 84.8567 314.336 84.8614 314.447 84.8614C314.809 84.8614 315.212 84.8243 315.657 84.7501C316.112 84.6851 316.59 84.5553 317.09 84.3605C317.591 84.1657 318.069 83.906 318.523 83.5814C318.978 83.2567 319.377 82.8579 319.72 82.3848C320.072 81.9211 320.351 81.3785 320.555 80.757C320.768 80.1448 320.875 79.4446 320.875 78.6561C320.875 77.9234 320.861 77.0561 320.833 76.0544C320.814 75.0527 320.787 73.9814 320.75 72.8405C320.722 71.6996 320.685 70.5263 320.638 69.3205C320.592 68.1054 320.546 66.9228 320.499 65.7727C320.453 64.4185 320.397 63.0411 320.332 61.6405C320.277 60.2306 320.212 58.7837 320.137 57.2996L322.864 57.1883C322.939 58.6817 323.003 60.1379 323.059 61.557C323.124 62.9669 323.18 64.3535 323.226 65.717C323.272 66.8579 323.314 68.0219 323.351 69.2092C323.398 70.3872 323.439 71.5419 323.477 72.6735C323.486 73.0631 323.546 73.4434 323.657 73.8144C323.778 74.1761 323.954 74.5008 324.186 74.7883C324.418 75.0759 324.706 75.3077 325.049 75.484C325.401 75.6509 325.823 75.7344 326.315 75.7344H326.593V78.4614H326.315C325.675 78.4614 325.146 78.4104 324.729 78.3083C324.321 78.197 323.945 78.044 323.602 77.8492V78.6561C323.602 79.8248 323.453 80.859 323.157 81.7588C322.86 82.6677 322.461 83.4561 321.96 84.124C321.468 84.8011 320.898 85.3669 320.249 85.8214C319.609 86.2759 318.936 86.6376 318.231 86.9066C317.526 87.1848 316.817 87.375 316.103 87.477C315.583 87.5512 315.082 87.5883 314.6 87.5883C314.433 87.5883 314.266 87.5837 314.099 87.5744C313.533 87.5466 312.944 87.4585 312.332 87.3101C311.729 87.1617 311.136 86.9483 310.551 86.6701C309.967 86.3918 309.41 86.0393 308.882 85.6127C308.362 85.1953 307.903 84.6944 307.504 84.1101C307.106 83.5257 306.795 82.8579 306.572 82.1066C306.35 81.3924 306.238 80.5947 306.238 79.7135V79.6022C306.248 78.3964 306.34 77.3622 306.517 76.4996C306.693 75.637 306.888 74.9135 307.101 74.3292C307.342 73.6521 307.62 73.0863 307.936 72.6318L310.426 73.7448ZM326.034 75.7344H327.773C328.33 75.7344 328.91 75.7298 329.513 75.7205C330.115 75.7019 330.69 75.6463 331.238 75.5535C331.785 75.4515 332.286 75.2985 332.74 75.0944C333.195 74.8811 333.552 74.5796 333.812 74.1901C334.118 73.717 334.299 73.2069 334.354 72.6596C334.364 72.539 334.368 72.4185 334.368 72.2979C334.368 71.8619 334.303 71.3935 334.173 70.8927C334.071 70.5124 333.816 70.0301 333.408 69.4457C333.009 68.8521 332.513 68.2214 331.919 67.5535C331.326 66.8764 330.663 66.1854 329.93 65.4805C329.197 64.7756 328.45 64.117 327.69 63.5048L328.01 60.6527L339.446 55.7553L340.518 58.2875L330.556 62.4753C331.01 62.8648 331.507 63.3008 332.045 63.7831C332.583 64.2654 333.116 64.7988 333.645 65.3831C334.35 66.1622 334.929 66.9089 335.384 67.6231C335.838 68.328 336.191 69.0005 336.441 69.6405C336.692 70.2805 336.859 70.8834 336.942 71.4492C336.998 71.8202 337.026 72.1727 337.026 72.5066C337.026 72.7014 337.007 72.9704 336.97 73.3135C336.942 73.6475 336.854 74.0277 336.706 74.4544C336.566 74.8811 336.399 75.2706 336.205 75.6231C335.379 77.0886 333.983 78.0022 332.017 78.364C331.692 78.4289 331.289 78.4614 330.806 78.4614H326.034V75.7344ZM338.973 53.877L327.787 58.6075L327.885 56.8266L338.319 52.4718L338.973 53.877ZM340.648 85.5431C342.076 85.2556 343.356 84.8567 344.488 84.3466C345.619 83.8364 346.589 83.2614 347.396 82.6214C348.202 81.9814 348.838 81.2996 349.302 80.5761C349.775 79.8619 350.062 79.157 350.164 78.4614H349.524C349.302 78.4614 348.986 78.4614 348.578 78.4614C348.179 78.4614 347.725 78.4382 347.215 78.3918C345.202 78.2712 343.713 77.6127 342.749 76.4161C342.322 75.8782 342.053 75.2567 341.942 74.5518C341.877 74.1808 341.844 73.8098 341.844 73.4388C341.844 73.0863 341.881 72.6411 341.956 72.1031C342.039 71.5559 342.225 70.939 342.512 70.2527C342.8 69.557 343.138 68.9588 343.528 68.4579C344.001 67.8735 344.511 67.433 345.058 67.1361C345.615 66.8301 346.19 66.677 346.783 66.677C348.1 66.677 349.311 67.2706 350.415 68.4579C350.804 68.8938 351.157 69.3854 351.472 69.9327C351.787 70.4799 352.056 71.0689 352.279 71.6996C352.502 72.3211 352.678 72.975 352.808 73.6614C352.938 74.3385 353.012 75.0295 353.03 75.7344H354.352V78.4614H352.822C352.543 79.8341 352.038 81.0724 351.305 82.1761C350.582 83.2892 349.7 84.2585 348.662 85.084C347.632 85.9095 346.482 86.5866 345.211 87.1153C343.95 87.644 342.642 88.015 341.288 88.2283L340.648 85.5431ZM346.783 69.4179C346.514 69.4179 346.259 69.5246 346.018 69.7379C345.777 69.9419 345.559 70.2063 345.364 70.5309C345.179 70.8556 345.021 71.2219 344.891 71.6301C344.761 72.0289 344.673 72.4231 344.627 72.8127C344.599 73.026 344.585 73.2347 344.585 73.4388C344.585 73.6057 344.599 73.8144 344.627 74.0648C344.664 74.306 344.761 74.524 344.919 74.7188C345.058 74.9043 345.23 75.0573 345.434 75.1779C345.647 75.2892 345.87 75.3819 346.102 75.4561C346.343 75.5211 346.575 75.5721 346.797 75.6092C347.029 75.637 347.229 75.6556 347.396 75.6648C347.859 75.6927 348.295 75.7066 348.703 75.7066C348.805 75.7066 349 75.7066 349.288 75.7066C349.585 75.6973 349.914 75.6788 350.276 75.6509C350.248 75.0573 350.178 74.4961 350.067 73.9675C349.956 73.4388 349.812 72.9472 349.636 72.4927C349.459 72.0382 349.26 71.6301 349.037 71.2683C348.824 70.8973 348.601 70.5773 348.369 70.3083C348.277 70.2156 348.17 70.1182 348.049 70.0161C347.938 69.9048 347.813 69.8075 347.674 69.724C347.544 69.6312 347.405 69.557 347.256 69.5014C347.108 69.4457 346.95 69.4179 346.783 69.4179ZM353.784 75.7344H355.523C356.08 75.7344 356.66 75.7298 357.263 75.7205C357.865 75.7019 358.44 75.6463 358.988 75.5535C359.535 75.4515 360.036 75.2985 360.49 75.0944C360.945 74.8811 361.302 74.5796 361.562 74.1901C361.868 73.717 362.049 73.2069 362.104 72.6596C362.114 72.539 362.118 72.4185 362.118 72.2979C362.118 71.8619 362.053 71.3935 361.923 70.8927C361.821 70.5124 361.566 70.0301 361.158 69.4457C360.759 68.8521 360.263 68.2214 359.669 67.5535C359.076 66.8764 358.413 66.1854 357.68 65.4805C356.947 64.7756 356.2 64.117 355.44 63.5048L355.76 60.6527L367.196 55.7553L368.268 58.2875L358.306 62.4753C358.76 62.8648 359.257 63.3008 359.795 63.7831C360.333 64.2654 360.866 64.7988 361.395 65.3831C362.1 66.1622 362.679 66.9089 363.134 67.6231C363.588 68.328 363.941 69.0005 364.191 69.6405C364.442 70.2805 364.609 70.8834 364.692 71.4492C364.748 71.8202 364.776 72.1727 364.776 72.5066C364.776 72.7014 364.757 72.9704 364.72 73.3135C364.692 73.6475 364.604 74.0277 364.456 74.4544C364.316 74.8811 364.149 75.2706 363.955 75.6231C363.129 77.0886 361.733 78.0022 359.767 78.364C359.442 78.4289 359.039 78.4614 358.556 78.4614H353.784V75.7344ZM366.723 53.877L355.537 58.6075L355.635 56.8266L366.069 52.4718L366.723 53.877ZM391.798 78.4614C388.478 78.4335 385.811 78.0486 383.798 77.3066C381.888 76.5646 380.589 75.5025 379.903 74.1205C379.513 73.3692 379.318 72.553 379.318 71.6718C379.318 70.7906 379.499 69.8724 379.861 68.917C379.991 68.5831 380.121 68.277 380.25 67.9988C380.39 67.7205 380.519 67.4793 380.64 67.2753C380.761 67.0712 380.863 66.9089 380.946 66.7883C381.03 66.6585 381.081 66.5796 381.099 66.5518L383.311 68.1935C383.219 68.3327 383.13 68.4672 383.047 68.597C382.973 68.7269 382.899 68.8614 382.824 69.0005C382.75 69.1303 382.676 69.2741 382.602 69.4318C382.537 69.5802 382.472 69.7518 382.407 69.9466C382.184 70.5588 382.073 71.1199 382.073 71.6301C382.073 72.0846 382.166 72.4973 382.351 72.8683C382.806 73.7773 383.845 74.4776 385.468 74.9692C387.091 75.4515 389.201 75.6973 391.798 75.7066C392.531 75.7066 393.338 75.6788 394.219 75.6231C395.1 75.5582 396 75.4469 396.918 75.2892C397.837 75.1315 398.746 74.9182 399.645 74.6492C400.554 74.3709 401.398 74.0138 402.177 73.5779C402.14 73.1605 402.048 72.7246 401.899 72.2701C401.76 71.8063 401.593 71.3518 401.398 70.9066C401.213 70.4614 401.013 70.0393 400.8 69.6405C400.587 69.2324 400.387 68.8753 400.202 68.5692C400.026 68.2538 399.873 68.0034 399.743 67.8179C399.622 67.6231 399.557 67.5211 399.548 67.5118L401.857 66.0092C401.876 66.0463 401.992 66.2411 402.205 66.5935C402.428 66.9367 402.683 67.3866 402.97 67.9431C403.258 68.4904 403.546 69.1118 403.833 69.8075C404.13 70.4938 404.362 71.1941 404.529 71.9083C404.64 72.3814 404.714 72.8034 404.751 73.1744C404.761 73.2764 404.765 73.3785 404.765 73.4805C404.765 73.7309 404.724 73.9906 404.64 74.2596C404.566 74.5286 404.408 74.8022 404.167 75.0805C403.935 75.3495 403.601 75.6231 403.165 75.9014C402.748 76.1611 402.261 76.4069 401.704 76.6388C401.148 76.8706 400.55 77.084 399.91 77.2788C399.27 77.4643 398.597 77.6359 397.892 77.7935C397.197 77.9419 396.496 78.0672 395.791 78.1692C395.086 78.2712 394.395 78.3454 393.718 78.3918C393.134 78.4382 392.577 78.4614 392.049 78.4614H391.798ZM394.01 83.4422L391.743 85.7101L389.461 83.4283L391.729 81.1605L394.01 83.4422ZM414.65 78.4614C413.63 78.4614 412.758 78.3408 412.035 78.0996C411.321 77.8585 410.713 77.4875 410.212 76.9866C409.906 76.6805 409.67 76.3512 409.503 75.9988C409.345 75.6463 409.224 75.2985 409.141 74.9553C409.067 74.6121 409.025 74.2875 409.016 73.9814C409.006 73.666 409.002 73.397 409.002 73.1744C409.002 73.1002 409.002 72.8822 409.002 72.5205C409.011 72.1495 409.02 71.6764 409.03 71.1014C409.039 70.5263 409.044 69.8677 409.044 69.1257C409.044 68.393 409.039 67.6185 409.03 66.8022C409.03 66.0046 409.02 65.1744 409.002 64.3118C408.983 63.4492 408.951 62.6144 408.904 61.8075C408.867 61.0005 408.816 60.2585 408.751 59.5814C408.696 58.895 408.626 58.3338 408.543 57.8979L411.27 57.397C411.353 57.8701 411.423 58.4498 411.478 59.1361C411.543 59.8225 411.594 60.5692 411.631 61.3761C411.678 62.1831 411.71 63.0272 411.729 63.9083C411.757 64.7802 411.77 65.6335 411.77 66.4683V73.4527C411.77 73.768 411.784 74.0648 411.812 74.3431C411.849 74.6121 411.975 74.8486 412.188 75.0527C412.401 75.266 412.717 75.433 413.134 75.5535C413.561 75.6741 414.066 75.7344 414.65 75.7344H414.929V78.4614H414.65ZM414.378 75.7344H414.67C415.06 75.7344 415.435 75.6463 415.797 75.4701C416.168 75.2938 416.511 75.0619 416.827 74.7744C417.151 74.4776 417.448 74.1483 417.717 73.7866C417.986 73.4156 418.223 73.0399 418.427 72.6596C418.64 72.233 418.821 71.8156 418.969 71.4075C419.118 70.9901 419.243 70.6005 419.345 70.2388C419.456 69.8677 419.544 69.5292 419.609 69.2231C419.674 68.917 419.735 68.6527 419.79 68.4301L422.461 69.1675C422.406 69.3993 422.332 69.724 422.239 70.1414C422.155 70.5588 422.072 71.0132 421.988 71.5048C421.914 71.9872 421.863 72.4788 421.835 72.9796C421.826 73.1651 421.821 73.3414 421.821 73.5083C421.821 73.8051 421.845 74.1251 421.891 74.4683C421.947 74.8022 422.072 75.099 422.267 75.3588C422.471 75.6185 422.763 75.7483 423.143 75.7483C423.616 75.7483 424.038 75.6231 424.409 75.3727C424.79 75.1222 425.123 74.793 425.411 74.3848C425.699 73.9767 425.944 73.5083 426.148 72.9796C426.352 72.4509 426.529 71.913 426.677 71.3657C426.826 70.8185 426.941 70.2805 427.025 69.7518C427.118 69.2138 427.187 68.7315 427.234 68.3048L429.947 68.8196C429.9 69.1443 429.84 69.5385 429.766 70.0022C429.692 70.466 429.636 70.953 429.599 71.4631C429.562 71.8248 429.543 72.1866 429.543 72.5483C429.543 72.6967 429.548 72.9332 429.557 73.2579C429.576 73.5825 429.645 73.9443 429.766 74.3431C429.896 74.7419 430.095 75.0666 430.364 75.317C430.633 75.5675 430.999 75.6927 431.463 75.6927C431.908 75.6927 432.275 75.5628 432.562 75.3031C432.85 75.0341 433.077 74.6863 433.244 74.2596C433.42 73.8237 433.546 73.3414 433.62 72.8127C433.694 72.2747 433.74 71.7367 433.759 71.1988C433.768 70.9298 433.773 70.6654 433.773 70.4057C433.773 70.146 433.763 69.8353 433.745 69.4735C433.736 69.1118 433.722 68.764 433.703 68.4301L436.43 68.2075C436.458 68.5135 436.486 68.8243 436.514 69.1396C436.551 69.4457 436.592 69.7657 436.639 70.0996C436.695 70.4335 436.759 70.786 436.834 71.157C436.917 71.528 437.028 71.9222 437.168 72.3396C437.539 73.4805 437.993 74.3338 438.531 74.8996C439.078 75.4561 439.686 75.7344 440.354 75.7344H440.688V78.4614H440.354C439.871 78.4614 439.398 78.3964 438.935 78.2666C438.471 78.1275 438.03 77.9327 437.613 77.6822C437.205 77.4318 436.829 77.1304 436.486 76.7779C436.143 76.4254 435.85 76.0266 435.609 75.5814C435.424 76.0173 435.192 76.4115 434.914 76.764C434.635 77.1164 434.315 77.4179 433.954 77.6683C433.601 77.9188 433.216 78.1135 432.799 78.2527C432.381 78.3918 431.936 78.4614 431.463 78.4614C430.536 78.4614 429.724 78.2248 429.028 77.7518C428.333 77.2695 427.813 76.6156 427.47 75.7901C427.22 76.1796 426.937 76.5414 426.621 76.8753C426.315 77.1999 425.977 77.4875 425.606 77.7379C425.244 77.979 424.855 78.1692 424.437 78.3083C424.029 78.4382 423.598 78.5031 423.143 78.5031C422.707 78.5031 422.285 78.4382 421.877 78.3083C421.478 78.1785 421.117 77.993 420.792 77.7518C420.467 77.5106 420.184 77.2185 419.943 76.8753C419.702 76.5321 419.521 76.1518 419.401 75.7344C419.113 76.1425 418.807 76.5135 418.482 76.8475C418.158 77.1814 417.801 77.4689 417.411 77.7101C417.021 77.9419 416.599 78.1275 416.145 78.2666C415.7 78.3964 415.208 78.4614 414.67 78.4614H414.378V75.7344ZM440.128 75.7344H443.147C444.381 75.7344 445.614 75.6185 446.848 75.3866C448.082 75.1454 449.297 74.8301 450.493 74.4405C451.69 74.0509 452.858 73.6057 453.999 73.1048C455.14 72.604 456.239 72.0892 457.297 71.5605C456.657 71.3379 456.045 71.0967 455.46 70.837C454.876 70.5773 454.301 70.313 453.735 70.044C453.299 69.8399 452.872 69.6451 452.455 69.4596C452.047 69.2648 451.648 69.0932 451.258 68.9448C450.878 68.7964 450.516 68.6805 450.173 68.597C449.83 68.5043 449.515 68.4579 449.227 68.4579C448.847 68.4579 448.485 68.5414 448.142 68.7083C447.799 68.8753 447.479 69.0886 447.182 69.3483C446.894 69.5988 446.635 69.8724 446.403 70.1692C446.171 70.4567 445.971 70.7304 445.805 70.9901C445.638 71.2405 445.508 71.4538 445.415 71.6301C445.331 71.797 445.29 71.8851 445.29 71.8944L442.785 70.7675C442.795 70.7489 442.832 70.6701 442.897 70.5309C442.971 70.3825 443.073 70.197 443.203 69.9744C443.342 69.7518 443.504 69.4967 443.69 69.2092C443.885 68.9217 444.107 68.6295 444.358 68.3327C445.081 67.4608 445.846 66.8069 446.653 66.3709C447.469 65.935 448.327 65.717 449.227 65.717C449.672 65.717 450.122 65.768 450.577 65.8701C451.04 65.9721 451.509 66.1112 451.982 66.2875C452.455 66.4544 452.937 66.6492 453.429 66.8718C453.92 67.0944 454.417 67.3217 454.918 67.5535C455.465 67.8132 456.017 68.0683 456.573 68.3188C457.139 68.5692 457.705 68.7964 458.271 69.0005C458.836 69.1953 459.402 69.353 459.968 69.4735C460.534 69.5941 461.104 69.6544 461.679 69.6544L462.208 72.2979C461.559 72.5669 460.914 72.859 460.274 73.1744C459.634 73.4805 458.966 73.8051 458.271 74.1483C457.25 74.6585 456.151 75.1686 454.973 75.6788C453.805 76.1889 452.576 76.6527 451.286 77.0701C450.006 77.4782 448.68 77.8121 447.307 78.0718C445.934 78.3315 444.548 78.4614 443.147 78.4614H440.128V75.7344ZM480.869 78.4614C479.849 78.4614 478.977 78.3408 478.254 78.0996C477.539 77.8585 476.932 77.4875 476.431 76.9866C476.125 76.6805 475.888 76.3512 475.721 75.9988C475.564 75.6463 475.443 75.2985 475.36 74.9553C475.285 74.6121 475.244 74.2875 475.234 73.9814C475.225 73.666 475.221 73.397 475.221 73.1744C475.221 73.1002 475.221 72.8822 475.221 72.5205C475.23 72.1495 475.239 71.6764 475.248 71.1014C475.258 70.5263 475.262 69.8677 475.262 69.1257C475.262 68.393 475.258 67.6185 475.248 66.8022C475.248 66.0046 475.239 65.1744 475.221 64.3118C475.202 63.4492 475.17 62.6144 475.123 61.8075C475.086 61.0005 475.035 60.2585 474.97 59.5814C474.914 58.895 474.845 58.3338 474.761 57.8979L477.488 57.397C477.572 57.8701 477.641 58.4498 477.697 59.1361C477.762 59.8225 477.813 60.5692 477.85 61.3761C477.896 62.1831 477.929 63.0272 477.948 63.9083C477.975 64.7802 477.989 65.6335 477.989 66.4683V73.4527C477.989 73.768 478.003 74.0648 478.031 74.3431C478.068 74.6121 478.193 74.8486 478.407 75.0527C478.62 75.266 478.935 75.433 479.353 75.5535C479.779 75.6741 480.285 75.7344 480.869 75.7344H481.148V78.4614H480.869ZM480.597 75.7344H482.211C482.749 75.7344 483.245 75.7251 483.699 75.7066C484.154 75.6788 484.567 75.6092 484.938 75.4979C485.309 75.3866 485.633 75.2243 485.912 75.0109C486.19 74.7883 486.422 74.4822 486.607 74.0927C486.7 73.8979 486.769 73.6521 486.816 73.3553C486.844 73.1605 486.858 72.9518 486.858 72.7292C486.858 72.6086 486.848 72.4277 486.83 72.1866C486.811 71.9361 486.751 71.5976 486.649 71.1709C486.547 70.735 486.398 70.2805 486.204 69.8075L484.993 66.8301L487.47 65.6057C487.47 65.615 487.512 65.7124 487.595 65.8979C487.678 66.0741 487.785 66.3153 487.915 66.6214C488.054 66.9275 488.203 67.2846 488.36 67.6927C488.518 68.0915 488.666 68.5182 488.805 68.9727C489.223 70.3176 489.464 71.5048 489.529 72.5344C489.538 72.6828 489.543 72.8312 489.543 72.9796C489.543 73.8237 489.404 74.5657 489.125 75.2057C488.847 75.8364 488.504 76.3605 488.096 76.7779C487.697 77.1953 487.233 77.5292 486.705 77.7796C486.176 78.0301 485.582 78.2063 484.924 78.3083C484.274 78.4104 483.569 78.4614 482.809 78.4614H480.597V75.7344ZM487.358 83.4422L485.091 85.7101L482.809 83.4283L485.077 81.1605L487.358 83.4422ZM508.083 78.4475C507.637 78.4475 507.109 78.3964 506.497 78.2944C505.894 78.1831 505.291 78.0393 504.688 77.8631C504.085 77.6869 503.533 77.4921 503.032 77.2788C502.531 77.0654 502.165 76.8521 501.933 76.6388L503.074 74.0231C503.417 74.2457 503.83 74.4637 504.312 74.677C504.794 74.8811 505.309 75.0619 505.857 75.2196C506.404 75.368 506.97 75.4793 507.554 75.5535C507.906 75.5999 508.254 75.6231 508.597 75.6231C508.811 75.6231 509.103 75.6092 509.474 75.5814C509.845 75.5443 510.262 75.433 510.726 75.2475C511.19 75.0619 511.579 74.779 511.895 74.3988C512.034 74.2318 512.103 73.9814 512.103 73.6475C512.103 73.4063 512.066 73.1188 511.992 72.7848C511.89 72.3304 511.723 71.8573 511.491 71.3657C511.269 70.8648 510.995 70.3686 510.67 69.877C510.355 69.3761 510.003 68.8938 509.613 68.4301C509.223 67.957 508.815 67.5164 508.389 67.1083C507.971 66.7002 507.545 66.3385 507.109 66.0231C506.673 65.7077 506.246 65.4573 505.829 65.2718L506.956 62.7396C507.503 62.9901 508.05 63.3147 508.597 63.7135C509.154 64.1124 509.697 64.5622 510.225 65.0631C510.754 65.564 511.255 66.1066 511.728 66.6909C512.21 67.266 512.646 67.8643 513.036 68.4857C513.434 69.0979 513.773 69.7193 514.051 70.3501C514.339 70.9715 514.552 71.5744 514.691 72.1588C514.803 72.6782 514.854 73.1466 514.844 73.564C514.844 73.9814 514.807 74.3524 514.733 74.677C514.659 75.0017 514.557 75.2846 514.427 75.5257C514.297 75.7669 514.158 75.9756 514.01 76.1518C513.676 76.5599 513.281 76.9124 512.827 77.2092C512.382 77.4967 511.899 77.7332 511.38 77.9188C510.861 78.1043 510.318 78.2388 509.752 78.3222C509.196 78.4057 508.639 78.4475 508.083 78.4475ZM523.394 69.4179C523.125 69.4179 522.87 69.5246 522.629 69.7379C522.388 69.9419 522.17 70.2063 521.975 70.5309C521.79 70.8556 521.632 71.2219 521.502 71.6301C521.372 72.0289 521.284 72.4231 521.238 72.8127C521.21 73.026 521.196 73.2347 521.196 73.4388C521.196 73.6057 521.21 73.8144 521.238 74.0648C521.275 74.306 521.372 74.524 521.53 74.7188C521.669 74.9043 521.841 75.0573 522.045 75.1779C522.258 75.2892 522.481 75.3819 522.713 75.4561C522.954 75.5211 523.186 75.5721 523.408 75.6092C523.64 75.637 523.84 75.6556 524.007 75.6648C524.47 75.6927 524.906 75.7066 525.314 75.7066C525.416 75.7066 525.611 75.7066 525.899 75.7066C526.196 75.6973 526.525 75.6788 526.887 75.6509C526.859 75.0573 526.789 74.4961 526.678 73.9675C526.567 73.4388 526.423 72.9472 526.247 72.4927C526.07 72.0382 525.871 71.6301 525.648 71.2683C525.435 70.8973 525.212 70.5773 524.981 70.3083C524.888 70.2156 524.781 70.1182 524.661 70.0161C524.549 69.9048 524.424 69.8075 524.285 69.724C524.155 69.6312 524.016 69.557 523.868 69.5014C523.719 69.4457 523.561 69.4179 523.394 69.4179ZM517.259 85.5431C518.687 85.2556 519.967 84.8567 521.099 84.3466C522.23 83.8364 523.2 83.2614 524.007 82.6214C524.814 81.9814 525.449 81.2996 525.913 80.5761C526.386 79.8619 526.673 79.157 526.775 78.4614H526.135C525.913 78.4614 525.597 78.4614 525.189 78.4614C524.79 78.4614 524.336 78.4382 523.826 78.3918C521.813 78.2712 520.324 77.6127 519.36 76.4161C518.933 75.8782 518.664 75.2567 518.553 74.5518C518.488 74.1808 518.455 73.8098 518.455 73.4388C518.455 73.0863 518.492 72.6411 518.567 72.1031C518.65 71.5559 518.836 70.939 519.123 70.2527C519.411 69.557 519.749 68.9588 520.139 68.4579C520.612 67.8735 521.122 67.433 521.669 67.1361C522.226 66.8301 522.801 66.677 523.394 66.677C524.712 66.677 525.922 67.2706 527.026 68.4579C527.499 68.9773 527.912 69.5802 528.264 70.2666C528.626 70.9437 528.918 71.6718 529.141 72.4509C529.363 73.2301 529.516 74.0417 529.6 74.8857C529.637 75.2846 529.655 75.6834 529.655 76.0822C529.655 76.5275 529.632 76.9727 529.586 77.4179C529.484 78.4382 529.256 79.3889 528.904 80.2701C528.552 81.1605 528.102 81.9814 527.554 82.7327C527.007 83.484 526.372 84.1657 525.648 84.7779C524.934 85.3901 524.16 85.9234 523.325 86.3779C522.499 86.8417 521.627 87.2266 520.709 87.5327C519.791 87.848 518.854 88.0799 517.899 88.2283L517.259 85.5431ZM538.061 69.4179C538.19 69.8538 538.32 70.2851 538.45 70.7118C538.58 71.1292 538.696 71.5512 538.798 71.9779C538.909 72.4231 539.021 72.873 539.132 73.3275C539.252 73.7727 539.359 74.2179 539.452 74.6631C539.554 75.099 539.637 75.5304 539.702 75.957C539.767 76.3837 539.8 76.8011 539.8 77.2092C539.8 78.0161 539.679 78.7953 539.438 79.5466C539.206 80.3072 538.877 81.0399 538.45 81.7448C538.033 82.4498 537.532 83.1222 536.948 83.7622C536.372 84.4022 535.742 85.0051 535.055 85.5709C534.378 86.1367 533.659 86.6561 532.899 87.1292C532.148 87.6115 531.382 88.0428 530.603 88.4231L529.393 85.9744C530.367 85.4921 531.313 84.9309 532.231 84.2909C533.149 83.6602 533.965 82.9692 534.68 82.2179C535.403 81.4666 535.983 80.6689 536.419 79.8248C536.855 78.9808 537.073 78.1089 537.073 77.2092C537.073 76.866 537.04 76.5043 536.975 76.124C536.92 75.7437 536.845 75.3541 536.753 74.9553C536.66 74.5564 536.558 74.1576 536.447 73.7588C536.335 73.3599 536.229 72.9704 536.127 72.5901C535.904 71.8109 535.668 71.0318 535.417 70.2527L538.061 69.4179ZM548.676 69.4179C548.407 69.4179 548.152 69.5246 547.91 69.7379C547.669 69.9419 547.451 70.2063 547.257 70.5309C547.071 70.8556 546.913 71.2219 546.784 71.6301C546.654 72.0289 546.566 72.4231 546.519 72.8127C546.491 73.026 546.477 73.2347 546.477 73.4388C546.477 73.6057 546.491 73.8144 546.519 74.0648C546.556 74.306 546.654 74.524 546.811 74.7188C546.95 74.9043 547.122 75.0573 547.326 75.1779C547.539 75.2892 547.762 75.3819 547.994 75.4561C548.235 75.5211 548.467 75.5721 548.69 75.6092C548.922 75.637 549.121 75.6556 549.288 75.6648C549.752 75.6927 550.188 75.7066 550.596 75.7066C550.698 75.7066 550.893 75.7066 551.18 75.7066C551.477 75.6973 551.806 75.6788 552.168 75.6509C552.14 75.0573 552.07 74.4961 551.959 73.9675C551.848 73.4388 551.704 72.9472 551.528 72.4927C551.352 72.0382 551.152 71.6301 550.93 71.2683C550.716 70.8973 550.494 70.5773 550.262 70.3083C550.169 70.2156 550.062 70.1182 549.942 70.0161C549.83 69.9048 549.705 69.8075 549.566 69.724C549.436 69.6312 549.297 69.557 549.149 69.5014C549 69.4457 548.843 69.4179 548.676 69.4179ZM542.54 85.5431C543.968 85.2556 545.248 84.8567 546.38 84.3466C547.512 83.8364 548.481 83.2614 549.288 82.6214C550.095 81.9814 550.73 81.2996 551.194 80.5761C551.667 79.8619 551.955 79.157 552.057 78.4614H551.417C551.194 78.4614 550.879 78.4614 550.47 78.4614C550.072 78.4614 549.617 78.4382 549.107 78.3918C547.094 78.2712 545.606 77.6127 544.641 76.4161C544.214 75.8782 543.945 75.2567 543.834 74.5518C543.769 74.1808 543.737 73.8098 543.737 73.4388C543.737 73.0863 543.774 72.6411 543.848 72.1031C543.931 71.5559 544.117 70.939 544.404 70.2527C544.692 69.557 545.03 68.9588 545.42 68.4579C545.893 67.8735 546.403 67.433 546.95 67.1361C547.507 66.8301 548.082 66.677 548.676 66.677C549.993 66.677 551.203 67.2706 552.307 68.4579C552.78 68.9773 553.193 69.5802 553.545 70.2666C553.907 70.9437 554.199 71.6718 554.422 72.4509C554.644 73.2301 554.797 74.0417 554.881 74.8857C554.918 75.2846 554.937 75.6834 554.937 76.0822C554.937 76.5275 554.913 76.9727 554.867 77.4179C554.765 78.4382 554.538 79.3889 554.185 80.2701C553.833 81.1605 553.383 81.9814 552.836 82.7327C552.288 83.484 551.653 84.1657 550.93 84.7779C550.215 85.3901 549.441 85.9234 548.606 86.3779C547.781 86.8417 546.909 87.2266 545.99 87.5327C545.072 87.848 544.135 88.0799 543.18 88.2283L542.54 85.5431Z" fill="white"/>
</g>
<defs>
<filter id="filter0_dd" x="0.71256" y="0.71256" width="740.575" height="142.785" filterUnits="userSpaceOnUse" color-interpolation-filters="sRGB">
<feFlood flood-opacity="0" result="BackgroundImageFix"/>
<feColorMatrix in="SourceAlpha" type="matrix" values="0 0 0 0 0 0 0 0 0 0 0 0 0 0 0 0 0 0 127 0"/>
<feOffset dy="3.28744"/>
<feGaussianBlur stdDeviation="1.64372"/>
<feColorMatrix type="matrix" values="0 0 0 0 0 0 0 0 0 0 0 0 0 0 0 0 0 0 0.168 0"/>
<feBlend mode="normal" in2="BackgroundImageFix" result="effect1_dropShadow"/>
<feColorMatrix in="SourceAlpha" type="matrix" values="0 0 0 0 0 0 0 0 0 0 0 0 0 0 0 0 0 0 127 0"/>
<feOffset/>
<feGaussianBlur stdDeviation="1.64372"/>
<feColorMatrix type="matrix" values="0 0 0 0 0 0 0 0 0 0 0 0 0 0 0 0 0 0 0.084 0"/>
<feBlend mode="normal" in2="effect1_dropShadow" result="effect2_dropShadow"/>
<feBlend mode="normal" in="SourceGraphic" in2="effect2_dropShadow" result="shape"/>
</filter>
</defs>
</svg>
