<svg xmlns="http://www.w3.org/2000/svg" width="321.271" height="168.911" viewBox="0 0 321.271 168.911">
  <g id="Group_1" data-name="Group 1" transform="translate(-634.15 -1656.157)">
    <path id="Path_1" data-name="Path 1" d="M937.115,1712l-19.737-8.533-19.687-38.181a16.524,16.524,0,0,0-14.793-9.135H851.755a17.042,17.042,0,0,0-16.875,16.813v52.925H651.5a16.7,16.7,0,0,0-16.625,16.674v34.156a16.883,16.883,0,0,0,16.625,16.938h11.656c1.117,16.938,15.709,31.405,33.5,31.405s32.383-14.467,33.487-31.405H855.27c1.1,16.938,15.708,31.405,33.5,31.405s32.384-14.467,33.489-31.405h8.406c9.184,0,16.362-7.754,16.362-16.938v-49.4A16.569,16.569,0,0,0,937.115,1712Zm-85.3-42.81h31.142a3.513,3.513,0,0,1,3.2,1.894L902,1701.778H847.967v-28.809A3.986,3.986,0,0,1,851.819,1669.195ZM696.661,1811.782a20.528,20.528,0,1,1,20.526-20.53A20.522,20.522,0,0,1,696.661,1811.782Zm0-53.892a33.1,33.1,0,0,0-31.808,22.736H651.5a3.866,3.866,0,0,1-3.588-3.9v-34.156a3.593,3.593,0,0,1,3.588-3.649H834.943v41.706H728.392A32.939,32.939,0,0,0,696.661,1757.89Zm192.109,53.892a20.528,20.528,0,1,1,20.527-20.53h0A20.577,20.577,0,0,1,888.77,1811.782Zm45.22-35.058c0,2.019-1.3,3.9-3.325,3.9h-10.1a33.564,33.564,0,0,0-63.539,0h-9.059v-65.81H911.38l20.59,9.057a3.685,3.685,0,0,1,2.02,3.452v49.4Z" transform="translate(8.394 0.001)" fill="#aeb0b3"/>
    <path id="Path_2" data-name="Path 2" d="M832.91,1658.234a6.542,6.542,0,0,0-6.524,6.514V1685.6h-2.448v.488h-185.7a6.507,6.507,0,0,0,2.434,12.548H832.91a6.539,6.539,0,0,0,6.513-6.512v-27.378A6.54,6.54,0,0,0,832.91,1658.234Z" transform="translate(0 23.996)" fill="#aeb0b3"/>
  </g>
</svg>
